ffmpeg started on 2025-05-12 at 18:39:00
Report written to "D:\Convert\FFMetrics\reports\ssim_report-6.txt"
Log level: 32
Command line:
ffmpeg -hide_banner -nostdin -i "G:\\\xc0\xed\xe8\xec\xe5\\\xce\xed\xe3\xee\xe8\xed\xe3\xe8\\!_35_\xcb\xe5\xf2\xee_2024\\DreamCast\\\xcf\xee\xea\xe0-\xef\xee\xea\xe0, \xc7\xe5\xec\xeb\xff\\[DC] Bye Bye Earth - 03_Telegram_HEVC.mkv" -i "G:\\\xc0\xed\xe8\xec\xe5\\\xce\xed\xe3\xee\xe8\xed\xe3\xe8\\!_35_\xcb\xe5\xf2\xee_2024\\DreamCast\\\xcf\xee\xea\xe0-\xef\xee\xea\xe0, \xc7\xe5\xec\xeb\xff\\[DC] Bye Bye Earth - 03_Telegram.mp4" -lavfi "[0:v]settb=AVTB,setpts=PTS-STARTPTS,format=pix_fmts=yuv420p10,fps=24000/1001,scale=1920:1080:flags=bicubic[main];[1:v]settb=AVTB,setpts=PTS-STARTPTS,format=pix_fmts=yuv420p,fps=24000/1001,scale=1920:1080:flags=bicubic[ref];[main][ref]ssim=eof_action=endall:stats_file='D\\:/Convert/FFMetrics/logs/ssim_logfile-6.txt'" -f null -
Input #0, matroska,webm, from 'G:\Аниме\Онгоинги\!_35_Лето_2024\DreamCast\Пока-пока, Земля\[DC] Bye Bye Earth - 03_Telegram_HEVC.mkv':
  Metadata:
    COMPATIBLE_BRANDS: isomiso2avc1mp41
    MAJOR_BRAND     : isom
    MINOR_VERSION   : 512
    ENCODER         : Lavf61.7.100
  Duration: 00:23:47.84, start: -0.021000, bitrate: 1345 kb/s
  Stream #0:0: Video: hevc (Main 10), yuv420p10le(tv, bt709, progressive), 1920x1080 [SAR 1:1 DAR 16:9], 23.98 fps, 23.98 tbr, 1k tbn (default)
      Metadata:
        HANDLER_NAME    : VideoHandler
        VENDOR_ID       : [0][0][0][0]
        ENCODER         : Lavc61.19.100 libx265
        BPS             : 1149363
        DURATION        : 00:23:46.549708333
        NUMBER_OF_FRAMES: 34203
        NUMBER_OF_BYTES : 204952961
        _STATISTICS_WRITING_APP: mkvpropedit v66.0.0 ('Josie') 64-bit
        _STATISTICS_WRITING_DATE_UTC: 2025-05-09 15:33:06
        _STATISTICS_TAGS: BPS DURATION NUMBER_OF_FRAMES NUMBER_OF_BYTES
  Stream #0:1: Audio: aac (LC), 48000 Hz, stereo, fltp (default)
      Metadata:
        HANDLER_NAME    : SoundHandler
        VENDOR_ID       : [0][0][0][0]
        ENCODER         : Lavc61.19.100 aac
        BPS             : 193311
        DURATION        : 00:23:47.840000000
        NUMBER_OF_FRAMES: 66931
        NUMBER_OF_BYTES : 34502274
        _STATISTICS_WRITING_APP: mkvpropedit v66.0.0 ('Josie') 64-bit
        _STATISTICS_WRITING_DATE_UTC: 2025-05-09 15:33:06
        _STATISTICS_TAGS: BPS DURATION NUMBER_OF_FRAMES NUMBER_OF_BYTES
Input #1, mov,mp4,m4a,3gp,3g2,mj2, from 'G:\Аниме\Онгоинги\!_35_Лето_2024\DreamCast\Пока-пока, Земля\[DC] Bye Bye Earth - 03_Telegram.mp4':
  Metadata:
    major_brand     : isom
    minor_version   : 512
    compatible_brands: isomiso2avc1mp41
    encoder         : Lavf61.1.100
  Duration: 00:23:47.80, start: 0.000000, bitrate: 3812 kb/s
  Stream #1:0[0x1](und): Video: h264 (High) (avc1 / 0x31637661), yuv420p(tv, bt709, progressive), 1920x1080 [SAR 1:1 DAR 16:9], 3668 kb/s, 23.98 fps, 23.98 tbr, 24k tbn (default)
      Metadata:
        handler_name    : VideoHandler
        vendor_id       : [0][0][0][0]
        encoder         : Lavc61.3.100 h264_qsv
  Stream #1:1[0x2](und): Audio: aac (HE-AACv2) (mp4a / 0x6134706D), 48000 Hz, stereo, fltp, 144 kb/s (default)
      Metadata:
        handler_name    : SoundHandler
        vendor_id       : [0][0][0][0]
Stream mapping:
  Stream #0:0 (hevc) -> settb:default
  Stream #1:0 (h264) -> settb:default
  ssim:default -> Stream #0:0 (wrapped_avframe)
  Stream #0:1 -> #0:1 (aac (native) -> pcm_s16le (native))
Output #0, null, to 'pipe:':
  Metadata:
    COMPATIBLE_BRANDS: isomiso2avc1mp41
    MAJOR_BRAND     : isom
    MINOR_VERSION   : 512
    encoder         : Lavf61.7.100
  Stream #0:0: Video: wrapped_avframe, yuv420p10le(tv, bt709, progressive), 1920x1080 [SAR 1:1 DAR 16:9], q=2-31, 200 kb/s, 23.98 fps, 23.98 tbn
      Metadata:
        encoder         : Lavc61.19.100 wrapped_avframe
  Stream #0:1: Audio: pcm_s16le, 48000 Hz, stereo, s16, 1536 kb/s (default)
      Metadata:
        HANDLER_NAME    : SoundHandler
        VENDOR_ID       : [0][0][0][0]
        _STATISTICS_TAGS: BPS DURATION NUMBER_OF_FRAMES NUMBER_OF_BYTES
        BPS             : 193311
        DURATION        : 00:23:47.840000000
        NUMBER_OF_FRAMES: 66931
        NUMBER_OF_BYTES : 34502274
        _STATISTICS_WRITING_APP: mkvpropedit v66.0.0 ('Josie') 64-bit
        _STATISTICS_WRITING_DATE_UTC: 2025-05-09 15:33:06
        encoder         : Lavc61.19.100 pcm_s16le
frame=  172 fps=0.0 q=-0.0 size=N/A time=00:00:07.17 bitrate=N/A speed=13.6x    frame=  395 fps=382 q=-0.0 size=N/A time=00:00:16.47 bitrate=N/A speed=15.9x    frame=  645 fps=414 q=-0.0 size=N/A time=00:00:26.90 bitrate=N/A speed=17.3x    frame=  858 fps=416 q=-0.0 size=N/A time=00:00:35.78 bitrate=N/A speed=17.3x    frame= 1110 fps=429 q=-0.0 size=N/A time=00:00:46.29 bitrate=N/A speed=17.9x    frame= 1368 fps=442 q=-0.0 size=N/A time=00:00:57.05 bitrate=N/A speed=18.4x    frame= 1629 fps=450 q=-0.0 size=N/A time=00:01:07.94 bitrate=N/A speed=18.8x    frame= 1894 fps=459 q=-0.0 size=N/A time=00:01:18.99 bitrate=N/A speed=19.1x    frame= 2167 fps=466 q=-0.0 size=N/A time=00:01:30.38 bitrate=N/A speed=19.4x    frame= 2415 fps=467 q=-0.0 size=N/A time=00:01:40.72 bitrate=N/A speed=19.5x    frame= 2677 fps=472 q=-0.0 size=N/A time=00:01:51.65 bitrate=N/A speed=19.7x    frame= 2955 fps=477 q=-0.0 size=N/A time=00:02:03.24 bitrate=N/A speed=19.9x    frame= 3175 fps=473 q=-0.0 size=N/A time=00:02:12.42 bitrate=N/A speed=19.7x    frame= 3393 fps=469 q=-0.0 size=N/A time=00:02:21.51 bitrate=N/A speed=19.6x    frame= 3572 fps=462 q=-0.0 size=N/A time=00:02:28.98 bitrate=N/A speed=19.3x    frame= 3761 fps=455 q=-0.0 size=N/A time=00:02:36.86 bitrate=N/A speed=  19x    frame= 3976 fps=453 q=-0.0 size=N/A time=00:02:45.83 bitrate=N/A speed=18.9x    frame= 4183 fps=450 q=-0.0 size=N/A time=00:02:54.46 bitrate=N/A speed=18.8x    frame= 4397 fps=448 q=-0.0 size=N/A time=00:03:03.39 bitrate=N/A speed=18.7x    frame= 4568 fps=443 q=-0.0 size=N/A time=00:03:10.52 bitrate=N/A speed=18.5x    frame= 4747 fps=438 q=-0.0 size=N/A time=00:03:17.98 bitrate=N/A speed=18.3x    frame= 4970 fps=438 q=-0.0 size=N/A time=00:03:27.29 bitrate=N/A speed=18.3x    frame= 5172 fps=436 q=-0.0 size=N/A time=00:03:35.71 bitrate=N/A speed=18.2x    frame= 5388 fps=435 q=-0.0 size=N/A time=00:03:44.72 bitrate=N/A speed=18.2x    frame= 5598 fps=434 q=-0.0 size=N/A time=00:03:53.48 bitrate=N/A speed=18.1x    frame= 5851 fps=436 q=-0.0 size=N/A time=00:04:04.03 bitrate=N/A speed=18.2x    frame= 6091 fps=437 q=-0.0 size=N/A time=00:04:14.04 bitrate=N/A speed=18.2x    frame= 6313 fps=437 q=-0.0 size=N/A time=00:04:23.30 bitrate=N/A speed=18.2x    frame= 6561 fps=438 q=-0.0 size=N/A time=00:04:33.64 bitrate=N/A speed=18.3x    frame= 6796 fps=439 q=-0.0 size=N/A time=00:04:43.44 bitrate=N/A speed=18.3x    frame= 7086 fps=443 q=-0.0 size=N/A time=00:04:55.54 bitrate=N/A speed=18.5x    frame= 7338 fps=444 q=-0.0 size=N/A time=00:05:06.05 bitrate=N/A speed=18.5x    frame= 7523 fps=442 q=-0.0 size=N/A time=00:05:13.77 bitrate=N/A speed=18.4x    frame= 7732 fps=441 q=-0.0 size=N/A time=00:05:22.48 bitrate=N/A speed=18.4x    frame= 7902 fps=438 q=-0.0 size=N/A time=00:05:29.57 bitrate=N/A speed=18.2x    frame= 8097 fps=436 q=-0.0 size=N/A time=00:05:37.71 bitrate=N/A speed=18.2x    frame= 8348 fps=437 q=-0.0 size=N/A time=00:05:48.18 bitrate=N/A speed=18.2x    frame= 8561 fps=437 q=-0.0 size=N/A time=00:05:57.06 bitrate=N/A speed=18.2x    frame= 8775 fps=436 q=-0.0 size=N/A time=00:06:05.99 bitrate=N/A speed=18.2x    frame= 8966 fps=435 q=-0.0 size=N/A time=00:06:13.95 bitrate=N/A speed=18.1x    frame= 9209 fps=435 q=-0.0 size=N/A time=00:06:24.09 bitrate=N/A speed=18.2x    frame= 9456 fps=437 q=-0.0 size=N/A time=00:06:34.39 bitrate=N/A speed=18.2x    frame= 9707 fps=438 q=-0.0 size=N/A time=00:06:44.86 bitrate=N/A speed=18.3x    frame= 9904 fps=436 q=-0.0 size=N/A time=00:06:53.07 bitrate=N/A speed=18.2x    frame=10159 fps=438 q=-0.0 size=N/A time=00:07:03.71 bitrate=N/A speed=18.3x    frame=10411 fps=439 q=-0.0 size=N/A time=00:07:14.22 bitrate=N/A speed=18.3x    frame=10673 fps=440 q=-0.0 size=N/A time=00:07:25.15 bitrate=N/A speed=18.4x    frame=10930 fps=441 q=-0.0 size=N/A time=00:07:35.87 bitrate=N/A speed=18.4x    frame=11185 fps=443 q=-0.0 size=N/A time=00:07:46.50 bitrate=N/A speed=18.5x    frame=11423 fps=443 q=-0.0 size=N/A time=00:07:56.43 bitrate=N/A speed=18.5x    frame=11689 fps=444 q=-0.0 size=N/A time=00:08:07.52 bitrate=N/A speed=18.5x    frame=11949 fps=446 q=-0.0 size=N/A time=00:08:18.37 bitrate=N/A speed=18.6x    frame=12221 fps=447 q=-0.0 size=N/A time=00:08:29.71 bitrate=N/A speed=18.6x    frame=12461 fps=447 q=-0.0 size=N/A time=00:08:39.72 bitrate=N/A speed=18.7x    frame=12740 fps=449 q=-0.0 size=N/A time=00:08:51.36 bitrate=N/A speed=18.7x    frame=12987 fps=450 q=-0.0 size=N/A time=00:09:01.66 bitrate=N/A speed=18.8x    frame=13245 fps=450 q=-0.0 size=N/A time=00:09:12.46 bitrate=N/A speed=18.8x    frame=13497 fps=451 q=-0.0 size=N/A time=00:09:22.93 bitrate=N/A speed=18.8x    frame=13764 fps=452 q=-0.0 size=N/A time=00:09:34.07 bitrate=N/A speed=18.9x    frame=13990 fps=452 q=-0.0 size=N/A time=00:09:43.49 bitrate=N/A speed=18.9x    frame=14281 fps=454 q=-0.0 size=N/A time=00:09:55.63 bitrate=N/A speed=18.9x    frame=14553 fps=455 q=-0.0 size=N/A time=00:10:06.98 bitrate=N/A speed=  19x    frame=14818 fps=456 q=-0.0 size=N/A time=00:10:18.03 bitrate=N/A speed=  19x    frame=15090 fps=457 q=-0.0 size=N/A time=00:10:29.37 bitrate=N/A speed=19.1x    frame=15362 fps=458 q=-0.0 size=N/A time=00:10:40.72 bitrate=N/A speed=19.1x    frame=15599 fps=458 q=-0.0 size=N/A time=00:10:50.60 bitrate=N/A speed=19.1x    frame=15862 fps=459 q=-0.0 size=N/A time=00:11:01.57 bitrate=N/A speed=19.1x    frame=16101 fps=459 q=-0.0 size=N/A time=00:11:11.54 bitrate=N/A speed=19.1x    frame=16370 fps=460 q=-0.0 size=N/A time=00:11:22.76 bitrate=N/A speed=19.2x    frame=16620 fps=460 q=-0.0 size=N/A time=00:11:33.19 bitrate=N/A speed=19.2x    frame=16878 fps=461 q=-0.0 size=N/A time=00:11:43.95 bitrate=N/A speed=19.2x    frame=17146 fps=462 q=-0.0 size=N/A time=00:11:55.13 bitrate=N/A speed=19.3x    frame=17418 fps=462 q=-0.0 size=N/A time=00:12:06.47 bitrate=N/A speed=19.3x    frame=17642 fps=462 q=-0.0 size=N/A time=00:12:15.81 bitrate=N/A speed=19.3x    frame=17875 fps=462 q=-0.0 size=N/A time=00:12:25.53 bitrate=N/A speed=19.3x    frame=18141 fps=463 q=-0.0 size=N/A time=00:12:36.63 bitrate=N/A speed=19.3x    frame=18377 fps=463 q=-0.0 size=N/A time=00:12:46.47 bitrate=N/A speed=19.3x    frame=18646 fps=463 q=-0.0 size=N/A time=00:12:57.69 bitrate=N/A speed=19.3x    frame=18919 fps=464 q=-0.0 size=N/A time=00:13:09.07 bitrate=N/A speed=19.4x    frame=19185 fps=465 q=-0.0 size=N/A time=00:13:20.17 bitrate=N/A speed=19.4x    frame=19467 fps=466 q=-0.0 size=N/A time=00:13:31.93 bitrate=N/A speed=19.4x    frame=19728 fps=466 q=-0.0 size=N/A time=00:13:42.82 bitrate=N/A speed=19.5x    frame=20003 fps=467 q=-0.0 size=N/A time=00:13:54.29 bitrate=N/A speed=19.5x    frame=20184 fps=466 q=-0.0 size=N/A time=00:14:01.84 bitrate=N/A speed=19.4x    frame=20439 fps=466 q=-0.0 size=N/A time=00:14:12.47 bitrate=N/A speed=19.4x    frame=20662 fps=466 q=-0.0 size=N/A time=00:14:21.77 bitrate=N/A speed=19.4x    frame=20894 fps=466 q=-0.0 size=N/A time=00:14:31.45 bitrate=N/A speed=19.4x    frame=21115 fps=465 q=-0.0 size=N/A time=00:14:40.67 bitrate=N/A speed=19.4x    frame=21323 fps=464 q=-0.0 size=N/A time=00:14:49.34 bitrate=N/A speed=19.4x    frame=21534 fps=464 q=-0.0 size=N/A time=00:14:58.14 bitrate=N/A speed=19.3x    frame=21752 fps=463 q=-0.0 size=N/A time=00:15:07.23 bitrate=N/A speed=19.3x    frame=21949 fps=462 q=-0.0 size=N/A time=00:15:15.45 bitrate=N/A speed=19.3x    frame=22165 fps=462 q=-0.0 size=N/A time=00:15:24.46 bitrate=N/A speed=19.3x    frame=22412 fps=462 q=-0.0 size=N/A time=00:15:34.76 bitrate=N/A speed=19.3x    frame=22652 fps=462 q=-0.0 size=N/A time=00:15:44.77 bitrate=N/A speed=19.3x    frame=22911 fps=463 q=-0.0 size=N/A time=00:15:55.57 bitrate=N/A speed=19.3x    frame=23159 fps=463 q=-0.0 size=N/A time=00:16:05.92 bitrate=N/A speed=19.3x    frame=23434 fps=464 q=-0.0 size=N/A time=00:16:17.39 bitrate=N/A speed=19.3x    frame=23683 fps=464 q=-0.0 size=N/A time=00:16:27.77 bitrate=N/A speed=19.3x    frame=23932 fps=464 q=-0.0 size=N/A time=00:16:38.16 bitrate=N/A speed=19.3x    frame=24158 fps=464 q=-0.0 size=N/A time=00:16:47.58 bitrate=N/A speed=19.3x    frame=24409 fps=464 q=-0.0 size=N/A time=00:16:58.05 bitrate=N/A speed=19.3x    frame=24666 fps=464 q=-0.0 size=N/A time=00:17:08.77 bitrate=N/A speed=19.4x    frame=24891 fps=464 q=-0.0 size=N/A time=00:17:18.16 bitrate=N/A speed=19.4x    frame=25118 fps=464 q=-0.0 size=N/A time=00:17:27.62 bitrate=N/A speed=19.3x    frame=25367 fps=464 q=-0.0 size=N/A time=00:17:38.01 bitrate=N/A speed=19.4x    frame=25631 fps=464 q=-0.0 size=N/A time=00:17:49.02 bitrate=N/A speed=19.4x    frame=25891 fps=465 q=-0.0 size=N/A time=00:17:59.87 bitrate=N/A speed=19.4x    frame=26170 fps=465 q=-0.0 size=N/A time=00:18:11.50 bitrate=N/A speed=19.4x    frame=26417 fps=466 q=-0.0 size=N/A time=00:18:21.80 bitrate=N/A speed=19.4x    frame=26664 fps=466 q=-0.0 size=N/A time=00:18:32.11 bitrate=N/A speed=19.4x    frame=26929 fps=466 q=-0.0 size=N/A time=00:18:43.16 bitrate=N/A speed=19.4x    frame=27186 fps=466 q=-0.0 size=N/A time=00:18:53.88 bitrate=N/A speed=19.4x    frame=27442 fps=467 q=-0.0 size=N/A time=00:19:04.56 bitrate=N/A speed=19.5x    frame=27707 fps=467 q=-0.0 size=N/A time=00:19:15.61 bitrate=N/A speed=19.5x    frame=27959 fps=467 q=-0.0 size=N/A time=00:19:26.12 bitrate=N/A speed=19.5x    frame=28195 fps=467 q=-0.0 size=N/A time=00:19:35.96 bitrate=N/A speed=19.5x    frame=28429 fps=467 q=-0.0 size=N/A time=00:19:45.72 bitrate=N/A speed=19.5x    frame=28681 fps=467 q=-0.0 size=N/A time=00:19:56.23 bitrate=N/A speed=19.5x    frame=28947 fps=468 q=-0.0 size=N/A time=00:20:07.33 bitrate=N/A speed=19.5x    frame=29190 fps=468 q=-0.0 size=N/A time=00:20:17.46 bitrate=N/A speed=19.5x    frame=29434 fps=468 q=-0.0 size=N/A time=00:20:27.64 bitrate=N/A speed=19.5x    frame=29694 fps=468 q=-0.0 size=N/A time=00:20:38.48 bitrate=N/A speed=19.5x    frame=29972 fps=468 q=-0.0 size=N/A time=00:20:50.08 bitrate=N/A speed=19.5x    frame=30237 fps=469 q=-0.0 size=N/A time=00:21:01.13 bitrate=N/A speed=19.6x    frame=30517 fps=469 q=-0.0 size=N/A time=00:21:12.81 bitrate=N/A speed=19.6x    frame=30765 fps=470 q=-0.0 size=N/A time=00:21:23.15 bitrate=N/A speed=19.6x    frame=31028 fps=470 q=-0.0 size=N/A time=00:21:34.12 bitrate=N/A speed=19.6x    frame=31284 fps=470 q=-0.0 size=N/A time=00:21:44.80 bitrate=N/A speed=19.6x    frame=31551 fps=470 q=-0.0 size=N/A time=00:21:55.93 bitrate=N/A speed=19.6x    frame=31772 fps=470 q=-0.0 size=N/A time=00:22:05.15 bitrate=N/A speed=19.6x    frame=31917 fps=469 q=-0.0 size=N/A time=00:22:11.20 bitrate=N/A speed=19.5x    frame=32061 fps=467 q=-0.0 size=N/A time=00:22:17.21 bitrate=N/A speed=19.5x    frame=32198 fps=466 q=-0.0 size=N/A time=00:22:22.92 bitrate=N/A speed=19.4x    frame=32358 fps=465 q=-0.0 size=N/A time=00:22:29.59 bitrate=N/A speed=19.4x    frame=32542 fps=464 q=-0.0 size=N/A time=00:22:37.27 bitrate=N/A speed=19.3x    frame=32707 fps=463 q=-0.0 size=N/A time=00:22:44.15 bitrate=N/A speed=19.3x    frame=32868 fps=462 q=-0.0 size=N/A time=00:22:50.86 bitrate=N/A speed=19.3x    frame=33010 fps=460 q=-0.0 size=N/A time=00:22:56.79 bitrate=N/A speed=19.2x    frame=33149 fps=459 q=-0.0 size=N/A time=00:23:02.58 bitrate=N/A speed=19.1x    frame=33285 fps=458 q=-0.0 size=N/A time=00:23:08.26 bitrate=N/A speed=19.1x    frame=33433 fps=456 q=-0.0 size=N/A time=00:23:14.43 bitrate=N/A speed=  19x    frame=33596 fps=455 q=-0.0 size=N/A time=00:23:21.23 bitrate=N/A speed=  19x    frame=33748 fps=454 q=-0.0 size=N/A time=00:23:27.57 bitrate=N/A speed=18.9x    frame=33972 fps=454 q=-0.0 size=N/A time=00:23:36.91 bitrate=N/A speed=18.9x    [Parsed_ssim_10 @ 000001fa4942d300] SSIM Y:0.993597 (21.936101) U:0.993901 (22.147639) V:0.993932 (22.169262) All:0.993703 (22.008956)
[out#0/null @ 000001fa484554c0] video:14697KiB audio:267724KiB subtitle:0KiB other streams:0KiB global headers:0KiB muxing overhead: unknown
frame=34203 fps=454 q=-0.0 Lsize=N/A time=00:23:46.55 bitrate=N/A speed=18.9x    
